<svg id="组_5" data-name="组 5" xmlns="http://www.w3.org/2000/svg" width="237" height="237" viewBox="0 -72 237 165">
	<defs>
		<style>
			.cls-1,
			.cls-2 {
				fill-rule: evenodd;
			}
		</style>
	</defs>
	<path id="形状_2" data-name="形状 2"
		d="M919.646,317.387H886.54A4.536,4.536,0,0,0,882,321.92h0a4.081,4.081,0,0,1,0,1.14v61.276a4.492,4.492,0,0,0,8.984,0V355.705h25.509a4.533,4.533,0,1,0,0-9.066H890.985V326.453h28.661a4.537,4.537,0,0,0,4.54-4.533h0A4.536,4.536,0,0,0,919.646,317.387Zm137.374,0h-33.11a4.535,4.535,0,0,0-4.54,4.533h0a4.081,4.081,0,0,1,0,1.14v61.276a4.49,4.49,0,0,0,8.98,0V355.705h25.51a4.533,4.533,0,1,0,0-9.066h-25.51V326.453h28.67a4.542,4.542,0,0,0,4.54-4.533h0A4.541,4.541,0,0,0,1057.02,317.387Zm61.7,65.072-22.77-61.633a4.4,4.4,0,0,0-4.01-3.017c-0.02,0-.04-0.006-0.06-0.006h-2.36a4.844,4.844,0,0,0-4.41,3.273l-22.63,61.352a4.529,4.529,0,0,0,2.71,5.813h0a4.543,4.543,0,0,0,5.82-2.705l5.44-14.9h28.29l5.45,14.934a4.542,4.542,0,0,0,5.82,2.7h0A4.527,4.527,0,0,0,1118.72,382.459Zm-38.95-20.892,10.82-29.628,10.83,29.628h-21.65ZM968.815,315.992a38,38,0,0,0-38.155,37.763A37.5,37.5,0,0,0,952.073,387.7a4.3,4.3,0,1,0,3.754-7.734,28.967,28.967,0,0,1-16.561-26.207,29.551,29.551,0,0,1,59.1,0,28.957,28.957,0,0,1-16.653,26.252,4.3,4.3,0,1,0,3.727,7.747A37.7,37.7,0,0,0,968.815,315.992Z"
		transform="translate(-882 -316)" class="cls-1" style="fill: #05f2f2;"></path>
	<path id="形状_3" data-name="形状 3"
		d="M992.631,353.449c0-12.687-10.679-23.01-23.8-23.01s-23.8,10.323-23.8,23.01c0,11.255,8.4,20.642,19.464,22.621a4.675,4.675,0,0,0-.405,1.9v26.294A4.741,4.741,0,0,0,968.836,409h0a4.741,4.741,0,0,0,4.752-4.729V377.974a4.69,4.69,0,0,0-.406-1.907C984.234,374.083,992.631,364.7,992.631,353.449Zm-23.8,14.89c-8.625,0-15.642-6.68-15.642-14.89s7.017-14.889,15.642-14.889,15.642,6.68,15.642,14.889S977.452,368.339,968.827,368.339Z"
		transform="translate(-882 -316)" class="cls-2" style="fill: #599af8;"></path>
</svg>
